<svg data-v-423bf9ae="" xmlns="http://www.w3.org/2000/svg" viewBox="0 0 276.0644209879065 163" class="iconAbove"><!----><!----><!----><g data-v-423bf9ae="" id="b3ddf6af-bb05-4557-b1fb-b31265732a83" fill="#000000" transform="matrix(4.440476309789104,0,0,4.440476309789104,-1.8650031887640637,81.60606889347454)"><path d="M11.06 13.58L11.06 10.74C11.06 8.81 10.40 7.78 8.93 7.78C7.84 7.78 6.96 8.50 6.62 9.65C6.41 8.44 5.77 7.78 4.56 7.78C3.53 7.78 2.67 8.47 2.30 9.62L2.30 9.18C2.30 8.27 1.86 7.80 1.19 7.80C0.78 7.80 0.42 8.04 0.42 8.43C0.42 8.54 0.46 8.67 0.56 8.81C0.64 8.60 0.83 8.47 1.02 8.47C1.36 8.47 1.54 8.74 1.54 9.21L1.55 14.64C1.55 14.97 1.75 15.16 2.03 15.16C2.28 15.16 2.42 15.05 2.51 14.97C2.37 14.53 2.37 14.04 2.37 11.72C2.37 9.14 3.50 8.30 4.37 8.30C5.52 8.30 5.89 9.16 5.89 10.81L5.91 14.67C5.91 14.98 6.09 15.16 6.37 15.16C6.59 15.16 6.73 15.06 6.85 14.97C6.73 14.63 6.71 14.10 6.71 13.58L6.69 11.40C6.75 9.07 7.90 8.30 8.72 8.30C9.88 8.30 10.23 9.23 10.23 10.81L10.25 14.67C10.25 14.98 10.43 15.16 10.72 15.16C10.95 15.16 11.09 15.06 11.20 14.97C11.10 14.63 11.06 14.10 11.06 13.58ZM17.89 12.68C17.81 12.67 17.71 12.67 17.58 12.70C17.77 12.85 17.91 13.16 17.86 13.48C17.81 13.90 17.51 14.29 16.73 14.31L13.65 14.35L17.93 8.92C18.16 8.62 18.19 8.39 18.19 8.08L18.03 7.88C17.78 7.95 17.36 7.95 16.73 7.95L14.35 7.92C13.27 7.91 12.74 8.46 12.74 9.10C12.74 9.48 12.98 9.97 13.44 10.04C13.54 10.07 13.65 10.04 13.72 10.00C13.54 9.81 13.43 9.59 13.47 9.30C13.52 8.97 13.79 8.67 14.43 8.65L17.43 8.58L12.99 14.21C12.82 14.42 12.74 14.64 12.74 14.88L12.88 15.11C13.30 15.02 13.80 15.02 14.22 15.02L16.94 15.05C17.95 15.05 18.56 14.50 18.56 13.73C18.56 13.37 18.41 12.75 17.89 12.68ZM26.15 14.24C26.05 14.43 25.89 14.46 25.79 14.46C25.49 14.46 25.38 14.28 25.38 13.76L25.37 8.30C25.37 7.98 25.17 7.78 24.89 7.78C24.65 7.78 24.50 7.90 24.42 7.98C24.56 8.43 24.56 8.92 24.56 11.33C24.56 13.85 23.34 14.67 22.44 14.67C21.29 14.67 20.87 14.03 20.87 12.12L20.86 8.27C20.86 7.97 20.66 7.78 20.38 7.78C20.16 7.78 20.02 7.88 19.91 7.98C20.01 8.32 20.05 8.83 20.05 9.37L20.05 12.21C20.06 14.42 20.75 15.20 22.23 15.20C23.31 15.20 24.22 14.55 24.61 13.41L24.61 13.85C24.61 14.70 24.93 15.13 25.59 15.13C26.04 15.13 26.31 14.94 26.31 14.62C26.31 14.49 26.26 14.38 26.15 14.24ZM29.69 18.33C31.65 18.33 33.08 17.35 33.08 14.39L33.08 8.71C32.42 7.95 31.29 7.78 30.48 7.78C27.82 7.78 27.37 9.98 27.37 11.55C27.37 14.06 28.29 15.12 29.83 15.12C31.04 15.12 31.91 14.46 32.26 13.37L32.26 14.29C32.26 16.67 31.50 17.88 29.72 17.88C28.88 17.88 28.20 17.50 28.20 16.62C28.20 16.28 28.29 16.00 28.57 15.82C28.48 15.69 28.34 15.64 28.14 15.64C27.75 15.64 27.41 16.02 27.41 16.62C27.41 17.78 28.48 18.33 29.69 18.33ZM30.02 14.59C28.84 14.59 28.25 13.72 28.25 11.63C28.25 10.15 28.52 8.25 30.41 8.25C31.19 8.25 31.92 8.44 32.27 8.85L32.26 11.55C32.24 12.85 31.72 14.59 30.02 14.59ZM40.85 13.58L40.84 10.74C40.84 8.81 40.14 7.78 38.60 7.78C37.53 7.78 36.62 8.41 36.22 9.49L36.23 6.75C36.25 5.84 36.27 5.36 36.39 5.01C36.30 4.93 36.11 4.80 35.85 4.82C35.59 4.83 35.41 4.98 35.41 5.31L35.42 14.64C35.42 14.97 35.62 15.16 35.90 15.16C36.13 15.16 36.29 15.05 36.37 14.97C36.23 14.52 36.23 14.03 36.23 11.61C36.23 9.13 37.46 8.30 38.40 8.30C39.59 8.30 40.03 9.16 40.03 10.81L40.04 14.67C40.04 14.98 40.22 15.16 40.50 15.16C40.73 15.16 40.88 15.06 40.98 14.97C40.88 14.63 40.85 14.10 40.85 13.58ZM45.78 15.20C47.98 15.20 48.83 13.37 48.83 11.16C48.83 8.81 47.96 7.78 46.42 7.78C45.21 7.78 44.30 8.64 43.95 9.66L43.96 6.69C43.96 6.31 43.99 5.40 44.10 5.01C44.00 4.93 43.83 4.82 43.58 4.82C43.32 4.82 43.12 4.98 43.12 5.31L43.12 14.25C43.78 15.01 44.95 15.20 45.78 15.20ZM45.77 14.71C45.04 14.73 44.21 14.43 43.95 14.07L43.95 11.83C43.95 10.44 44.53 8.33 46.33 8.33C47.36 8.33 47.96 9.18 47.96 11.16C47.96 12.73 47.64 14.66 45.77 14.71ZM53.30 15.20C55.26 15.20 56.42 13.82 56.42 11.49C56.42 9.16 55.26 7.78 53.30 7.78C51.32 7.78 50.18 9.16 50.18 11.49C50.18 13.82 51.32 15.20 53.30 15.20ZM53.30 14.74C51.87 14.74 51.06 13.57 51.06 11.49C51.06 9.42 51.87 8.25 53.30 8.25C54.71 8.25 55.52 9.42 55.52 11.49C55.52 13.57 54.71 14.74 53.30 14.74ZM61.07 7.78C60.17 7.78 59.50 8.36 59.19 9.42L59.19 9.17C59.21 8.26 58.88 7.80 58.24 7.80C57.79 7.80 57.51 8.01 57.51 8.32C57.51 8.44 57.57 8.57 57.67 8.71C57.76 8.50 57.93 8.47 58.04 8.47C58.32 8.47 58.45 8.67 58.45 9.18L58.45 14.63C58.45 14.95 58.65 15.15 58.93 15.15C59.16 15.15 59.33 15.04 59.42 14.95C59.26 14.50 59.28 14.01 59.28 11.61C59.28 9.11 60.13 8.30 60.91 8.30C61.47 8.30 61.81 8.58 61.81 9.21C61.81 9.51 61.78 9.76 61.54 10.08C61.60 10.15 61.73 10.19 61.89 10.18C62.24 10.14 62.59 9.76 62.59 9.18C62.59 8.27 61.96 7.78 61.07 7.78Z"></path></g><defs data-v-423bf9ae=""><linearGradient data-v-423bf9ae="" gradientTransform="rotate(25)" id="0d71a926-8ed3-4360-a1c2-c282440bfccf" x1="0%" y1="0%" x2="100%" y2="0%"><stop data-v-423bf9ae="" offset="0%" style="stop-color: rgb(180, 55, 61); stop-opacity: 1;"></stop><stop data-v-423bf9ae="" offset="100%" style="stop-color: rgb(178, 58, 203); stop-opacity: 1;"></stop></linearGradient></defs><g data-v-423bf9ae="" id="d2586ad4-7f15-43bc-aaf2-25051330e9d7" transform="matrix(2.812499664723913,0,0,2.812499664723913,94.00000536441739,-0.018124997930137)" stroke="none" fill="url(#0d71a926-8ed3-4360-a1c2-c282440bfccf)"><path d="M6.651 27h6.024v5.01h6.651V27h6.024v5.01H32v-32h-6.651V5h-6.024V.01h-6.651V5H6.651V.01H0v32h6.651V27zM19.325 7h6.024v4.666h-6.024V7zm0 6.666h6.024v4.667h-6.024v-4.667zm0 6.667h6.024V25h-6.024v-4.667zM6.651 7h6.024v4.666H6.651V7zm0 6.666h6.024v4.667H6.651v-4.667zm0 6.667h6.024V25H6.651v-4.667z"></path></g><!----></svg>